<svg xmlns="http://www.w3.org/2000/svg" width="1120" height="420" viewBox="0 0 1120 420" role="img" aria-labelledby="title desc">
  <title id="title">Pack2Serve project overview</title>
  <desc id="desc">Pack2Serve overview in the same first-screen card style as the other GitHub repositories.</desc>
  <defs>
    <linearGradient id="bg" x1="0" y1="0" x2="1" y2="1">
      <stop offset="0" stop-color="#f6fbf7"/>
      <stop offset="0.56" stop-color="#fbfbf5"/>
      <stop offset="1" stop-color="#eef8f3"/>
    </linearGradient>
    <filter id="shadow" x="-20%" y="-25%" width="140%" height="150%">
      <feDropShadow dx="0" dy="18" stdDeviation="22" flood-color="#18362d" flood-opacity="0.14"/>
    </filter>
  </defs>

  <rect width="1120" height="420" rx="34" fill="url(#bg)"/>
  <path d="M0 314 C150 260 282 300 430 258 C606 207 720 178 882 211 C980 231 1054 279 1120 255 L1120 420 L0 420 Z" fill="#dceee8" opacity="0.88"/>
  <path d="M58 82 C194 46 332 52 464 74 C590 95 726 97 850 67 C946 44 1030 48 1080 72" fill="none" stroke="#e7d5c7" stroke-width="2" opacity="0.9"/>

  <rect x="68" y="58" width="984" height="284" rx="28" fill="#ffffff" filter="url(#shadow)"/>

  <g transform="translate(94 84)">
    <rect width="238" height="232" rx="20" fill="#102e24"/>
    <rect x="28" y="28" width="48" height="48" rx="13" fill="#e8f7f1"/>
    <path d="M39 43 H65 V61 H39 Z" fill="none" stroke="#258b72" stroke-width="4" stroke-linejoin="round"/>
    <path d="M40 44 L52 53 L64 44" fill="none" stroke="#258b72" stroke-width="4" stroke-linecap="round" stroke-linejoin="round"/>
    <text x="28" y="112" font-family="Segoe UI, Arial, sans-serif" font-size="29" font-weight="800" fill="#ffffff">Pack2Serve</text>
    <text x="28" y="141" font-family="Segoe UI, Arial, sans-serif" font-size="15" font-weight="700" fill="#d7f7ea">Modpack to server</text>
    <rect x="28" y="173" width="148" height="42" rx="10" fill="#2c9a7b"/>
    <text x="57" y="199" font-family="Segoe UI, Arial, sans-serif" font-size="13" font-weight="800" fill="#ffffff">Server Flow</text>
    <rect x="28" y="228" width="110" height="16" rx="8" fill="#b9cac3" opacity="0.9"/>
  </g>

  <g transform="translate(390 88)">
    <rect width="176" height="78" rx="16" fill="#fffaf7" stroke="#efd8cc"/>
    <circle cx="36" cy="39" r="18" fill="#f5e7df"/>
    <text x="68" y="34" font-family="Segoe UI, Arial, sans-serif" font-size="13" fill="#4c514d">Input</text>
    <text x="68" y="58" font-family="Segoe UI, Arial, sans-serif" font-size="29" font-weight="900" fill="#0b1412">MRPACK</text>
  </g>

  <g transform="translate(610 88)">
    <rect width="176" height="78" rx="16" fill="#fbfbff" stroke="#d9d8f0"/>
    <circle cx="36" cy="39" r="18" fill="#ececf8"/>
    <text x="68" y="34" font-family="Segoe UI, Arial, sans-serif" font-size="13" fill="#4c514d">Loader</text>
    <text x="68" y="58" font-family="Segoe UI, Arial, sans-serif" font-size="29" font-weight="900" fill="#0b1412">Forge</text>
  </g>

  <g transform="translate(830 88)">
    <rect width="176" height="78" rx="16" fill="#f8fffc" stroke="#c8e2d9"/>
    <circle cx="36" cy="39" r="18" fill="#e3f0eb"/>
    <text x="68" y="34" font-family="Segoe UI, Arial, sans-serif" font-size="13" fill="#4c514d">Runtime</text>
    <text x="68" y="58" font-family="Segoe UI, Arial, sans-serif" font-size="29" font-weight="900" fill="#0b1412">Java</text>
  </g>

  <path d="M534 181 C586 222 668 224 717 183" fill="none" stroke="#8d8cd3" stroke-width="3" stroke-dasharray="8 12" stroke-linecap="round"/>
  <path d="M878 176 C850 222 800 243 742 239" fill="none" stroke="#8d8cd3" stroke-width="3" stroke-dasharray="8 12" stroke-linecap="round"/>

  <g transform="translate(390 218)">
    <rect width="326" height="86" rx="16" fill="#fbfffd" stroke="#d4e8df"/>
    <circle cx="32" cy="43" r="6" fill="#268b72"/>
    <text x="56" y="36" font-family="Segoe UI, Arial, sans-serif" font-size="18" font-weight="800" fill="#0c1715">Generated server</text>
    <text x="56" y="63" font-family="Segoe UI, Arial, sans-serif" font-size="14" fill="#4e625b">mods, eula, start scripts</text>
  </g>

  <path d="M716 261 H786" stroke="#268b72" stroke-width="4" stroke-linecap="round"/>
  <path d="M776 249 L790 261 L776 273" fill="none" stroke="#268b72" stroke-width="4" stroke-linecap="round" stroke-linejoin="round"/>

  <g transform="translate(812 218)">
    <rect width="234" height="86" rx="16" fill="#fbfffd" stroke="#d4e8df"/>
    <text x="28" y="36" font-family="Segoe UI, Arial, sans-serif" font-size="18" font-weight="800" fill="#0c1715">Local panel</text>
    <text x="28" y="63" font-family="Segoe UI, Arial, sans-serif" font-size="14" fill="#4e625b">logs, players, settings</text>
  </g>

  <rect x="390" y="322" width="272" height="16" rx="8" fill="#d5e7df"/>
</svg>
